solid Onshape
  facet normal -0.999998 -0.00218874 -1.61991e-18
    outer loop
      vertex -0.372926 0 1.45694
      vertex -0.372926 -8.88178e-16 2.65701
      vertex -0.394006 9.63101 1.45694
    endloop
  endfacet
  facet normal -0.999998 -0.00218874 1.7188e-9
    outer loop
      vertex -0.372926 -8.88178e-16 2.65701
      vertex -0.394055 9.65323 2.65701
      vertex -0.394006 9.63101 1.45694
    endloop
  endfacet
  facet normal 0 0 1
    outer loop
      vertex -0.241007 9.65173 3
      vertex -0.225577 -0.106879 3
      vertex 5.24053 9.65173 3
    endloop
  endfacet
  facet normal 0 0 1
    outer loop
      vertex -0.225577 -0.106879 3
      vertex 5.24053 -0.106879 3
      vertex 5.24053 9.65173 3
    endloop
  endfacet
  facet normal 1 0 0
    outer loop
      vertex 0 9.65173 2.57605
      vertex 0 9.65323 2.65701
      vertex 0 9.65173 2.65701
    endloop
  endfacet
  facet normal 0 -1 0
    outer loop
      vertex 5.24053 -0.106879 3
      vertex -0.225577 -0.106879 3
      vertex 5.24053 -0.106879 0
    endloop
  endfacet
  facet normal 0 -1 0
    outer loop
      vertex -0.225577 -0.106879 3
      vertex -0.225577 -0.106879 0
      vertex 5.24053 -0.106879 0
    endloop
  endfacet
  facet normal 0 1 0
    outer loop
      vertex -0.241007 9.65173 2.65701
      vertex -0.241007 9.65173 3
      vertex 0 9.65173 2.65701
    endloop
  endfacet
  facet normal 0 1 0
    outer loop
      vertex -0.241007 9.65173 3
      vertex 5.24053 9.65173 3
      vertex 0 9.65173 2.65701
    endloop
  endfacet
  facet normal 0 1 0
    outer loop
      vertex 0 9.65173 2.65701
      vertex 5.24053 9.65173 3
      vertex 0 9.65173 2.57605
    endloop
  endfacet
  facet normal 0 1 0
    outer loop
      vertex 5.24053 9.65173 3
      vertex 5.24053 9.65173 0
      vertex 0 9.65173 2.57605
    endloop
  endfacet
  facet normal 0 1 0
    outer loop
      vertex 0 9.65173 2.57605
      vertex 5.24053 9.65173 0
      vertex -0.241007 9.65173 2.57605
    endloop
  endfacet
  facet normal 0 1 0
    outer loop
      vertex 5.24053 9.65173 0
      vertex -0.241007 9.65173 0
      vertex -0.241007 9.65173 2.57605
    endloop
  endfacet
  facet normal -0.999999 -0.00158112 0
    outer loop
      vertex -0.225577 -0.106879 3
      vertex -0.241007 9.65173 3
      vertex -0.241007 9.65173 2.65701
    endloop
  endfacet
  facet normal -0.999999 -0.00158112 1.75658e-8
    outer loop
      vertex -0.241007 9.65173 2.65701
      vertex -0.225746 0 2.65701
      vertex -0.225577 -0.106879 3
    endloop
  endfacet
  facet normal -0.999999 -0.00158118 0
    outer loop
      vertex -0.225746 0 2.65701
      vertex -0.225746 0 1.45694
      vertex -0.225577 -0.106879 3
    endloop
  endfacet
  facet normal -0.999999 -0.00158118 0
    outer loop
      vertex -0.225577 -0.106879 3
      vertex -0.225746 0 1.45694
      vertex -0.225577 -0.106879 0
    endloop
  endfacet
  facet normal -0.999999 -0.00158112 -4.09006e-9
    outer loop
      vertex -0.225577 -0.106879 0
      vertex -0.225746 0 1.45694
      vertex -0.241007 9.65173 0
    endloop
  endfacet
  facet normal -0.999999 -0.00158112 1.05403e-9
    outer loop
      vertex -0.225746 0 1.45694
      vertex -0.240974 9.63101 1.45694
      vertex -0.241007 9.65173 0
    endloop
  endfacet
  facet normal -0.999999 -0.00158119 0
    outer loop
      vertex -0.241007 9.65173 0
      vertex -0.240974 9.63101 1.45694
      vertex -0.241007 9.65173 2.57605
    endloop
  endfacet
  facet normal 1 0 0
    outer loop
      vertex 5.24053 9.35322 0
      vertex 5.24053 9.65173 0
      vertex 5.24053 9.35322 2.15698
    endloop
  endfacet
  facet normal 1 0 0
    outer loop
      vertex 5.24053 9.65173 0
      vertex 5.24053 9.65173 3
      vertex 5.24053 9.35322 2.15698
    endloop
  endfacet
  facet normal 1 0 0
    outer loop
      vertex 5.24053 9.35322 2.15698
      vertex 5.24053 9.65173 3
      vertex 5.24053 8.30872 2.15698
    endloop
  endfacet
  facet normal 1 0 0
    outer loop
      vertex 5.24053 9.65173 3
      vertex 5.24053 -0.106879 3
      vertex 5.24053 8.30872 2.15698
    endloop
  endfacet
  facet normal 1 0 0
    outer loop
      vertex 5.24053 8.30872 2.15698
      vertex 5.24053 -0.106879 3
      vertex 5.24053 8.30872 0
    endloop
  endfacet
  facet normal 1 0 0
    outer loop
      vertex 5.24053 -0.106879 3
      vertex 5.24053 -0.106879 0
      vertex 5.24053 8.30872 0
    endloop
  endfacet
  facet normal 0 -1 0
    outer loop
      vertex 5.24053 8.30872 2.15698
      vertex 5.24053 8.30872 0
      vertex 5.35736 8.30872 2.15698
    endloop
  endfacet
  facet normal 0 -1 0
    outer loop
      vertex 5.24053 8.30872 0
      vertex 5.35736 8.30872 0
      vertex 5.35736 8.30872 2.15698
    endloop
  endfacet
  facet normal 0 1 0
    outer loop
      vertex 5.24053 9.35322 2.15698
      vertex 5.35571 9.35322 2.15698
      vertex 5.24053 9.35322 0
    endloop
  endfacet
  facet normal 0 1 0
    outer loop
      vertex 5.35571 9.35322 2.15698
      vertex 5.35571 9.35322 0
      vertex 5.24053 9.35322 0
    endloop
  endfacet
  facet normal 0 0 1
    outer loop
      vertex 5.24053 9.35322 2.15698
      vertex 5.24053 8.30872 2.15698
      vertex 5.35571 9.35322 2.15698
    endloop
  endfacet
  facet normal 0 0 1
    outer loop
      vertex 5.24053 8.30872 2.15698
      vertex 5.35736 8.30872 2.15698
      vertex 5.35571 9.35322 2.15698
    endloop
  endfacet
  facet normal 0.999999 0.00158094 0
    outer loop
      vertex 5.35571 9.35322 2.15698
      vertex 5.35736 8.30872 2.15698
      vertex 5.35571 9.35322 0
    endloop
  endfacet
  facet normal 0.999999 0.00158094 0
    outer loop
      vertex 5.35736 8.30872 2.15698
      vertex 5.35736 8.30872 0
      vertex 5.35571 9.35322 0
    endloop
  endfacet
  facet normal 0 0 -1
    outer loop
      vertex -0.241007 9.65173 0
      vertex 5.24053 9.65173 0
      vertex -0.225577 -0.106879 0
    endloop
  endfacet
  facet normal 0 0 -1
    outer loop
      vertex 5.24053 9.65173 0
      vertex 5.24053 9.35322 0
      vertex -0.225577 -0.106879 0
    endloop
  endfacet
  facet normal 0 0 -1
    outer loop
      vertex 5.24053 -0.106879 0
      vertex -0.225577 -0.106879 0
      vertex 5.24053 8.30872 0
    endloop
  endfacet
  facet normal 0 0 -1
    outer loop
      vertex -0.225577 -0.106879 0
      vertex 5.24053 9.35322 0
      vertex 5.24053 8.30872 0
    endloop
  endfacet
  facet normal 0 0 -1
    outer loop
      vertex 5.24053 8.30872 0
      vertex 5.24053 9.35322 0
      vertex 5.35736 8.30872 0
    endloop
  endfacet
  facet normal 0 0 -1
    outer loop
      vertex 5.24053 9.35322 0
      vertex 5.35571 9.35322 0
      vertex 5.35736 8.30872 0
    endloop
  endfacet
  facet normal 0 0.999829 -0.0185146
    outer loop
      vertex -0.240974 9.63101 1.45694
      vertex -0.394006 9.63101 1.45694
      vertex -0.241007 9.65173 2.57605
    endloop
  endfacet
  facet normal -6.22851e-9 0.999829 -0.0185146
    outer loop
      vertex -0.394006 9.63101 1.45694
      vertex -0.394055 9.65323 2.65701
      vertex -0.241007 9.65173 2.57605
    endloop
  endfacet
  facet normal 0 0.999829 -0.0185146
    outer loop
      vertex -0.241007 9.65173 2.57605
      vertex -0.394055 9.65323 2.65701
      vertex 0 9.65173 2.57605
    endloop
  endfacet
  facet normal 0 0.999829 -0.0185146
    outer loop
      vertex -0.394055 9.65323 2.65701
      vertex 0 9.65323 2.65701
      vertex 0 9.65173 2.57605
    endloop
  endfacet
  facet normal 0 0 -1
    outer loop
      vertex -0.225746 0 1.45694
      vertex -0.372926 0 1.45694
      vertex -0.240974 9.63101 1.45694
    endloop
  endfacet
  facet normal 0 0 -1
    outer loop
      vertex -0.372926 0 1.45694
      vertex -0.394006 9.63101 1.45694
      vertex -0.240974 9.63101 1.45694
    endloop
  endfacet
  facet normal 6.03463e-15 -1 0
    outer loop
      vertex -0.225746 0 2.65701
      vertex -0.372926 -8.88178e-16 2.65701
      vertex -0.225746 0 1.45694
    endloop
  endfacet
  facet normal 0 -1 -7.40111e-16
    outer loop
      vertex -0.372926 -8.88178e-16 2.65701
      vertex -0.372926 0 1.45694
      vertex -0.225746 0 1.45694
    endloop
  endfacet
  facet normal 0 0 1
    outer loop
      vertex 0 9.65173 2.65701
      vertex 0 9.65323 2.65701
      vertex -0.241007 9.65173 2.65701
    endloop
  endfacet
  facet normal 0 0 1
    outer loop
      vertex 0 9.65323 2.65701
      vertex -0.394055 9.65323 2.65701
      vertex -0.241007 9.65173 2.65701
    endloop
  endfacet
  facet normal 0 0 1
    outer loop
      vertex -0.241007 9.65173 2.65701
      vertex -0.394055 9.65323 2.65701
      vertex -0.225746 0 2.65701
    endloop
  endfacet
  facet normal 0 0 1
    outer loop
      vertex -0.394055 9.65323 2.65701
      vertex -0.372926 -8.88178e-16 2.65701
      vertex -0.225746 0 2.65701
    endloop
  endfacet
endsolid Onshape
